<svg data-v-423bf9ae="" xmlns="http://www.w3.org/2000/svg" viewBox="0 0 488 90" class="iconLeft"><!----><!----><!----><g data-v-423bf9ae="" id="4dd241f8-e05d-457d-a579-eebb612379e8" fill="white" transform="matrix(6.08519290965367,0,0,6.08519290965367,102.25764262423527,-8.853955239594285)"><path d="M8.20 3.92L5.68 3.92L5.68 9.79C5.68 10.08 5.68 10.39 5.66 10.71C5.59 11.48 5.22 11.93 4.52 11.93C3.81 11.93 3.30 11.56 3.22 10.30L3.19 9.88L0.67 9.88L0.69 10.30C0.76 12.40 1.83 13.78 4.45 13.78C6.96 13.78 8.06 12.56 8.16 10.86C8.20 10.15 8.20 9.84 8.20 9.39ZM14.07 13.58L16.53 13.58C16.42 12.75 16.39 12.25 16.39 11.69L16.39 9.59C16.39 9.13 16.38 8.69 16.35 8.32C16.24 6.96 15.43 5.91 13.06 5.91C11.17 5.91 9.62 6.90 9.60 8.65L11.98 8.64C12.03 7.99 12.36 7.62 12.95 7.62C13.50 7.62 13.80 7.95 13.85 8.33C13.87 8.57 13.87 8.72 13.87 8.88L13.87 8.99L13.40 8.99C10.86 8.99 9.35 9.97 9.35 11.56C9.35 13.01 10.51 13.78 11.75 13.78C12.43 13.78 13.06 13.61 13.59 13.27L13.90 12.49ZM12.78 12.07C12.28 12.07 11.93 11.82 11.93 11.37C11.93 10.63 12.74 10.33 13.87 10.42L13.87 10.91C13.87 11.69 13.29 12.07 12.78 12.07ZM29.93 7.80C29.76 6.78 28.92 5.91 27.43 5.91C26.74 5.91 26.28 6.06 25.82 6.34L25.03 7.36C24.71 6.54 23.91 5.91 22.64 5.91C21.95 5.91 21.49 6.06 21.03 6.34L20.43 7.31L20.43 6.10L17.91 6.10L17.91 13.58L20.43 13.58L20.43 9.63C20.43 8.36 20.75 7.62 21.56 7.62C22.22 7.62 22.55 8.04 22.64 8.75C22.68 9.13 22.69 9.53 22.69 9.77L22.69 13.58L25.21 13.58L25.21 9.63C25.21 8.36 25.54 7.62 26.35 7.62C27.01 7.62 27.34 8.04 27.43 8.75C27.47 9.13 27.48 9.53 27.48 9.77L27.48 13.58L30.00 13.58L30.00 9.21C30.00 8.61 29.99 8.18 29.93 7.80ZM34.94 5.91C32.75 5.91 31.01 7.35 31.01 9.93C31.01 12.39 32.63 13.78 34.78 13.78C36.81 13.78 38.30 12.77 38.58 10.84L36.11 10.84C35.97 11.65 35.49 12.07 34.92 12.07C34.06 12.07 33.59 11.37 33.59 9.77C33.59 8.33 34.05 7.62 34.89 7.62C35.52 7.62 36.01 7.98 36.12 8.96L38.56 8.96C38.49 7.28 37.14 5.91 34.94 5.91ZM44.03 13.58L46.49 13.58C46.38 12.75 46.35 12.25 46.35 11.69L46.35 9.59C46.35 9.13 46.34 8.69 46.31 8.32C46.20 6.96 45.39 5.91 43.02 5.91C41.13 5.91 39.58 6.90 39.56 8.65L41.94 8.64C41.99 7.99 42.32 7.62 42.91 7.62C43.46 7.62 43.76 7.95 43.81 8.33C43.83 8.57 43.83 8.72 43.83 8.88L43.83 8.99L43.36 8.99C40.82 8.99 39.31 9.97 39.31 11.56C39.31 13.01 40.47 13.78 41.71 13.78C42.39 13.78 43.02 13.61 43.55 13.27L43.86 12.49ZM42.74 12.07C42.24 12.07 41.89 11.82 41.89 11.37C41.89 10.63 42.70 10.33 43.83 10.42L43.83 10.91C43.83 11.69 43.25 12.07 42.74 12.07ZM55.73 6.10L52.98 6.10L51.45 11.58L49.91 6.10L47.11 6.10L50.06 13.58L52.78 13.58ZM63.34 9.74C63.34 7.81 62.08 5.91 59.58 5.91C57.09 5.91 55.59 7.69 55.59 9.87C55.59 12.50 57.30 13.78 59.44 13.78C61.36 13.78 62.76 12.82 63.20 11.13L60.72 11.13C60.62 11.70 60.19 12.07 59.47 12.07C58.76 12.07 58.21 11.72 58.09 10.47L63.29 10.47C63.32 10.22 63.34 9.97 63.34 9.74ZM59.46 7.62C60.13 7.62 60.56 8.05 60.70 8.93L58.17 8.93C58.34 8.01 58.80 7.62 59.46 7.62Z"></path></g><!----><g data-v-423bf9ae="" id="86bcf5ba-377c-46da-9a82-efad098511a8" transform="matrix(1.151129458347125,0,0,1.151129458347125,-14.056472917356253,-13.889118229339061)" stroke="none" fill="white"><path d="M82.5 12.5h-65a5 5 0 0 0-5 5v50a5 5 0 0 0 5 5h65a5 5 0 0 0 5-5v-50a5 5 0 0 0-5-5zM20.718 82.225a5.847 5.847 0 0 0 2.613 7.843 5.848 5.848 0 0 0 7.842-2.614L37.4 75H24.331l-3.613 7.225zM75.67 75H62.6l6.227 12.453a5.845 5.845 0 0 0 10.455-5.229L75.67 75z"></path></g><!----></svg>