<svg version="1.1" xmlns="http://www.w3.org/2000/svg" viewBox="0 0 182.12109375 193.98046875" width="364.2421875" height="387.9609375">
  <!-- svg-source:excalidraw -->
  
  <defs>
    <style class="style-fonts">
      @font-face {
        font-family: "Virgil";
        src: url("https://excalidraw.com/Virgil.woff2");
      }
      @font-face {
        font-family: "Cascadia";
        src: url("https://excalidraw.com/Cascadia.woff2");
      }
    </style>
  </defs>
  <g transform="translate(171.546875 13.2890625) rotate(0 -53.224609375 20.68359375)" stroke="none"><path fill="#c92a2a" d="M 5.08,0 Q 5.08,0 5.17,1.33 5.26,2.66 5.19,5.22 5.12,7.78 4.80,9.95 4.48,12.12 3.89,14.43 3.30,16.74 1.93,19.36 0.56,21.99 -0.84,23.96 -2.26,25.93 -3.75,27.68 -5.25,29.43 -7.18,31.01 -9.12,32.60 -10.89,33.88 -12.66,35.16 -14.61,36.34 -16.57,37.52 -18.42,38.62 -20.28,39.71 -22.62,40.64 -24.96,41.56 -27.74,42.22 -30.52,42.88 -32.77,43.33 -35.03,43.77 -37.40,44.19 -39.77,44.61 -42.63,45.19 -45.50,45.78 -47.76,45.95 -50.02,46.13 -52.96,46.55 -55.89,46.97 -58.18,47.21 -60.48,47.45 -62.79,47.67 -65.10,47.88 -68.07,48.18 -71.04,48.48 -73.77,48.58 -76.50,48.68 -78.74,48.74 -80.98,48.81 -83.20,48.83 -85.42,48.85 -87.72,48.87 -90.01,48.89 -92.17,48.92 -94.33,48.94 -96.60,48.97 -98.87,48.99 -101.09,49.01 -103.32,49.04 -104.88,49.04 -106.44,49.04 -107.67,48.84 -108.90,48.64 -109.99,48.05 -111.09,47.47 -111.94,46.57 -112.80,45.67 -113.32,44.54 -113.84,43.42 -113.98,42.18 -114.11,40.95 -113.84,39.73 -113.58,38.52 -112.93,37.46 -112.29,36.39 -111.35,35.59 -110.40,34.78 -109.25,34.32 -108.09,33.87 -106.85,33.80 -105.61,33.73 -104.42,34.06 -103.22,34.40 -102.19,35.09 -101.16,35.79 -100.41,36.78 -99.66,37.77 -99.27,38.94 -98.87,40.12 -98.87,41.36 -98.87,42.61 -99.27,43.78 -99.66,44.96 -100.41,45.95 -101.17,46.94 -102.19,47.63 -103.22,48.33 -104.42,48.66 -105.62,48.99 -106.86,48.93 -108.10,48.86 -109.25,48.40 -110.40,47.94 -111.35,47.13 -112.30,46.33 -112.94,45.27 -113.58,44.20 -113.84,42.99 -114.11,41.78 -113.97,40.54 -113.84,39.31 -113.32,38.18 -112.80,37.05 -111.94,36.15 -111.09,35.25 -109.99,34.67 -108.89,34.09 -107.67,33.89 -106.44,33.69 -106.44,33.69 -106.44,33.69 -104.04,33.70 -101.64,33.71 -99.46,33.73 -97.28,33.75 -95.15,33.77 -93.02,33.80 -90.80,33.82 -88.58,33.85 -86.40,33.86 -84.23,33.88 -81.88,33.85 -79.52,33.82 -77.35,33.66 -75.17,33.50 -73.00,33.45 -70.82,33.41 -68.02,33.12 -65.22,32.84 -62.72,32.56 -60.22,32.27 -58.09,32.09 -55.96,31.91 -53.31,31.51 -50.67,31.11 -47.56,30.74 -44.45,30.37 -41.96,29.93 -39.47,29.49 -37.17,29.05 -34.88,28.61 -32.59,28.21 -30.30,27.81 -27.74,26.76 -25.18,25.70 -22.77,24.44 -20.35,23.17 -18.04,21.65 -15.74,20.12 -14.05,18.63 -12.36,17.14 -10.40,14.94 -8.44,12.74 -7.32,10.04 -6.21,7.35 -5.73,5.00 -5.26,2.65 -5.17,1.32 -5.08,0 -5.00,-0.60 -4.93,-1.21 -4.71,-1.78 -4.49,-2.36 -4.15,-2.86 -3.80,-3.36 -3.34,-3.77 -2.88,-4.18 -2.34,-4.46 -1.80,-4.75 -1.20,-4.89 -0.61,-5.04 0.00,-5.04 0.61,-5.04 1.20,-4.89 1.80,-4.75 2.34,-4.46 2.88,-4.18 3.34,-3.77 3.80,-3.36 4.15,-2.86 4.49,-2.36 4.71,-1.78 4.93,-1.21 5.00,-0.60 5.08,0.00 5.08,0.00 L 5.08,0 Z"></path></g><g transform="translate(172.12109375 10) rotate(0 -62.29296875 2.3828125)" stroke="none"><path fill="#c92a2a" d="M 0,5.32 Q 0,5.32 -2.36,5.35 -4.72,5.37 -7.85,5.51 -10.99,5.65 -13.12,5.77 -15.24,5.89 -18.12,6.04 -20.99,6.18 -23.47,6.26 -25.95,6.33 -28.85,6.46 -31.75,6.58 -33.91,6.78 -36.07,6.98 -38.63,7.33 -41.19,7.68 -44.29,8.00 -47.39,8.32 -49.64,8.40 -51.88,8.48 -54.43,8.53 -56.97,8.57 -59.55,8.73 -62.13,8.89 -65.01,9.08 -67.89,9.26 -70.02,9.43 -72.15,9.60 -74.39,9.65 -76.62,9.70 -78.98,9.74 -81.34,9.78 -83.75,9.81 -86.16,9.85 -88.29,9.88 -90.42,9.90 -92.95,10.18 -95.48,10.47 -97.73,10.63 -99.99,10.78 -102.19,11.06 -104.38,11.35 -106.70,11.37 -109.02,11.40 -111.43,11.66 -113.84,11.93 -116.19,12.06 -118.54,12.20 -121.56,12.35 -124.58,12.51 -125.82,12.30 -127.05,12.10 -128.16,11.51 -129.27,10.93 -130.13,10.02 -130.99,9.11 -131.52,7.97 -132.04,6.83 -132.18,5.59 -132.31,4.34 -132.04,3.12 -131.78,1.89 -131.13,0.82 -130.48,-0.24 -129.53,-1.05 -128.57,-1.87 -127.41,-2.33 -126.25,-2.79 -124.99,-2.86 -123.74,-2.93 -122.54,-2.59 -121.33,-2.26 -120.29,-1.55 -119.25,-0.85 -118.50,0.14 -117.74,1.13 -117.34,2.32 -116.94,3.51 -116.94,4.76 -116.94,6.01 -117.34,7.20 -117.74,8.39 -118.50,9.39 -119.26,10.38 -120.29,11.09 -121.33,11.79 -122.54,12.13 -123.75,12.46 -125.00,12.39 -126.25,12.32 -127.41,11.86 -128.58,11.40 -129.53,10.58 -130.48,9.77 -131.13,8.70 -131.78,7.63 -132.05,6.40 -132.31,5.18 -132.18,3.93 -132.04,2.69 -131.52,1.55 -130.99,0.41 -130.13,-0.49 -129.27,-1.40 -128.16,-1.98 -127.05,-2.57 -125.82,-2.77 -124.58,-2.97 -124.58,-2.97 -124.58,-2.97 -122.21,-3.10 -119.83,-3.22 -117.70,-3.33 -115.56,-3.45 -113.42,-3.55 -111.27,-3.65 -108.27,-3.71 -105.26,-3.78 -102.35,-4.09 -99.45,-4.41 -97.20,-4.53 -94.94,-4.66 -92.28,-4.91 -89.61,-5.17 -87.29,-5.14 -84.96,-5.11 -82.78,-5.07 -80.60,-5.04 -78.20,-5.00 -75.80,-4.96 -73.60,-4.93 -71.40,-4.89 -69.20,-5.00 -67.01,-5.10 -64.67,-5.20 -62.34,-5.30 -59.66,-5.40 -56.98,-5.50 -54.46,-5.46 -51.94,-5.42 -49.62,-5.38 -47.30,-5.34 -45.14,-5.45 -42.97,-5.56 -40.13,-5.78 -37.28,-6.00 -34.88,-6.09 -32.47,-6.19 -29.21,-6.26 -25.95,-6.33 -23.47,-6.26 -20.99,-6.18 -18.12,-6.04 -15.24,-5.89 -13.12,-5.77 -10.99,-5.65 -7.85,-5.51 -4.72,-5.37 -2.36,-5.35 0,-5.32 0.63,-5.24 1.27,-5.16 1.87,-4.94 2.47,-4.71 3.00,-4.34 3.53,-3.98 3.95,-3.50 4.38,-3.02 4.67,-2.45 4.97,-1.88 5.13,-1.26 5.28,-0.64 5.28,0.00 5.28,0.64 5.13,1.26 4.97,1.88 4.67,2.45 4.38,3.02 3.95,3.50 3.52,3.98 3.00,4.34 2.47,4.71 1.87,4.94 1.27,5.16 0.63,5.24 -0.00,5.32 -0.00,5.32 L 0,5.32 Z"></path></g><g transform="translate(46.9609375 14.2421875) rotate(0 -15.458984375 46.609375)" stroke="none"><path fill="#c92a2a" d="M 0,4.95 Q 0,4.95 -1.41,5.05 -2.83,5.15 -5.14,5.37 -7.44,5.60 -9.75,6.41 -12.05,7.23 -14.18,8.25 -16.31,9.27 -18.39,10.73 -20.47,12.19 -21.98,14.74 -23.49,17.29 -24.46,19.60 -25.42,21.90 -26.27,24.50 -27.12,27.10 -27.78,29.42 -28.45,31.73 -28.85,33.91 -29.25,36.08 -29.35,38.57 -29.46,41.06 -29.45,43.80 -29.44,46.54 -29.44,49.21 -29.43,51.87 -28.71,54.59 -27.99,57.31 -26.92,59.65 -25.85,61.99 -24.61,64.55 -23.38,67.11 -22.22,69.17 -21.07,71.23 -19.07,72.84 -17.08,74.45 -14.77,75.62 -12.46,76.79 -9.85,77.99 -7.23,79.20 -5.22,80.21 -3.21,81.22 -1.01,82.15 1.18,83.07 3.43,83.98 5.67,84.90 6.38,85.26 7.09,85.63 8.27,85.99 9.46,86.36 10.46,87.09 11.47,87.81 12.19,88.82 12.91,89.83 13.27,91.01 13.63,92.20 13.59,93.44 13.56,94.68 13.13,95.84 12.69,97.00 11.92,97.96 11.14,98.93 10.09,99.59 9.05,100.26 7.84,100.55 6.64,100.85 5.41,100.74 4.17,100.64 3.03,100.15 1.90,99.66 0.98,98.83 0.06,98.00 -0.54,96.92 -1.15,95.84 -1.38,94.62 -1.61,93.40 -1.44,92.17 -1.27,90.95 -0.71,89.84 -0.16,88.73 0.71,87.86 1.59,86.98 2.70,86.44 3.81,85.89 5.04,85.72 6.27,85.56 7.48,85.80 8.70,86.03 9.77,86.65 10.85,87.26 11.68,88.18 12.50,89.11 12.99,90.25 13.47,91.39 13.57,92.62 13.67,93.86 13.37,95.06 13.06,96.26 12.39,97.30 11.72,98.34 10.76,99.12 9.79,99.89 8.63,100.31 7.46,100.74 6.22,100.77 4.98,100.80 4.98,100.80 4.99,100.80 1.74,99.66 -1.50,98.52 -3.66,97.59 -5.82,96.66 -8.21,95.65 -10.60,94.63 -12.60,93.56 -14.60,92.49 -16.99,91.42 -19.38,90.35 -21.42,89.34 -23.46,88.32 -25.48,86.90 -27.50,85.47 -29.33,83.89 -31.15,82.31 -32.79,80.33 -34.43,78.35 -35.87,75.75 -37.30,73.14 -38.35,70.96 -39.40,68.77 -40.36,66.68 -41.31,64.59 -42.03,62.58 -42.75,60.56 -43.36,58.24 -43.96,55.92 -44.22,53.26 -44.48,50.60 -44.47,47.89 -44.46,45.19 -44.41,42.95 -44.36,40.72 -44.21,38.57 -44.06,36.42 -43.70,33.88 -43.34,31.35 -42.65,28.36 -41.96,25.36 -41.25,23.30 -40.53,21.24 -39.65,18.86 -38.77,16.47 -37.57,13.84 -36.36,11.21 -35.17,9.21 -33.99,7.21 -32.48,5.22 -30.97,3.24 -29.19,1.80 -27.41,0.36 -25.29,-0.86 -23.16,-2.09 -20.78,-2.85 -18.40,-3.60 -16.03,-4.17 -13.67,-4.73 -10.55,-5.16 -7.44,-5.60 -5.14,-5.37 -2.83,-5.15 -1.41,-5.05 0,-4.95 0.59,-4.87 1.18,-4.80 1.74,-4.59 2.30,-4.38 2.79,-4.04 3.28,-3.70 3.67,-3.25 4.07,-2.81 4.35,-2.28 4.62,-1.75 4.77,-1.17 4.91,-0.59 4.91,0.00 4.91,0.59 4.77,1.17 4.62,1.75 4.35,2.28 4.07,2.81 3.67,3.25 3.28,3.70 2.79,4.04 2.30,4.38 1.74,4.59 1.18,4.80 0.59,4.87 -0.00,4.95 -0.00,4.95 L 0,4.95 Z"></path></g><g transform="translate(67.6640625 52.95703125) rotate(0 7.705078125 13.19921875)" stroke="none"><path fill="#c92a2a" d="M 3.13,3.93 Q 3.13,3.93 2.14,4.83 1.16,5.74 0.37,7.86 -0.41,9.99 -0.32,12.25 -0.24,14.51 2.06,16.34 4.37,18.16 6.49,18.44 8.60,18.72 10.92,18.67 13.24,18.62 15.55,18.57 17.86,18.53 20.02,18.76 22.17,19.00 23.35,19.22 24.53,19.44 25.57,20.02 26.62,20.60 27.42,21.48 28.23,22.37 28.71,23.46 29.19,24.56 29.29,25.75 29.40,26.94 29.12,28.11 28.84,29.27 28.20,30.28 27.56,31.29 26.64,32.05 25.71,32.80 24.59,33.22 23.47,33.64 22.27,33.69 21.08,33.73 19.93,33.38 18.79,33.04 17.81,32.35 16.83,31.66 16.13,30.69 15.43,29.72 15.07,28.58 14.71,27.44 14.73,26.25 14.76,25.05 15.16,23.92 15.57,22.80 16.31,21.86 17.05,20.92 18.05,20.27 19.06,19.62 20.22,19.32 21.38,19.03 22.57,19.12 23.76,19.21 24.86,19.67 25.97,20.14 26.86,20.93 27.76,21.72 28.35,22.76 28.95,23.80 29.18,24.97 29.42,26.14 29.26,27.33 29.11,28.52 28.58,29.59 28.06,30.67 27.22,31.52 26.38,32.37 25.31,32.91 24.24,33.45 23.06,33.62 21.88,33.79 21.88,33.79 21.88,33.79 19.58,33.52 17.29,33.25 14.90,33.20 12.50,33.15 10.25,33.08 8.00,33.02 5.66,32.63 3.32,32.25 0.50,31.20 -2.32,30.14 -4.32,28.68 -6.33,27.22 -8.24,24.93 -10.16,22.64 -11.24,20.53 -12.33,18.43 -12.64,16.10 -12.94,13.77 -12.75,11.55 -12.56,9.34 -11.84,6.91 -11.12,4.49 -9.92,2.56 -8.72,0.62 -7.03,-0.89 -5.34,-2.42 -4.23,-3.17 -3.13,-3.93 -2.61,-4.25 -2.09,-4.56 -1.52,-4.75 -0.94,-4.93 -0.33,-4.97 0.26,-5.02 0.86,-4.91 1.45,-4.81 2.01,-4.56 2.56,-4.32 3.04,-3.95 3.52,-3.58 3.90,-3.10 4.28,-2.63 4.53,-2.08 4.78,-1.53 4.90,-0.93 5.01,-0.34 4.98,0.26 4.95,0.86 4.77,1.44 4.59,2.02 4.28,2.54 3.98,3.07 3.55,3.50 3.12,3.93 3.12,3.93 L 3.13,3.93 Z"></path></g><g transform="translate(110.79296875 75.05859375) rotate(0 -47.625 48.474609375)" stroke="none"><path fill="#c92a2a" d="M 2.64,4.54 Q 2.64,4.54 0.25,5.92 -2.13,7.29 -4.07,8.45 -6.00,9.61 -9.13,11.81 -12.26,14.01 -15.15,16.42 -18.05,18.82 -20.64,21.17 -23.22,23.52 -25.26,25.36 -27.30,27.21 -29.51,28.96 -31.73,30.72 -33.70,32.30 -35.67,33.87 -37.46,35.33 -39.26,36.79 -40.88,38.47 -42.50,40.15 -43.97,41.90 -45.44,43.66 -47.35,45.82 -49.26,47.99 -51.41,50.29 -53.57,52.59 -55.58,54.58 -57.58,56.57 -59.51,58.38 -61.43,60.19 -62.88,61.78 -64.33,63.38 -65.81,65.20 -67.29,67.02 -68.96,69.43 -70.63,71.84 -72.29,74.12 -73.94,76.39 -75.29,78.09 -76.65,79.79 -78.33,81.82 -80.01,83.84 -81.01,85.80 -82.00,87.75 -83.14,89.83 -84.27,91.91 -85.46,93.92 -86.64,95.93 -87.19,96.90 -87.74,97.87 -88.08,99.04 -88.43,100.22 -89.13,101.22 -89.83,102.22 -90.81,102.95 -91.80,103.68 -92.96,104.05 -94.13,104.42 -95.35,104.41 -96.58,104.39 -97.73,103.98 -98.88,103.57 -99.85,102.82 -100.81,102.07 -101.48,101.04 -102.15,100.02 -102.46,98.84 -102.77,97.65 -102.69,96.43 -102.61,95.21 -102.14,94.08 -101.67,92.95 -100.86,92.03 -100.06,91.11 -99.00,90.49 -97.94,89.88 -96.74,89.63 -95.55,89.39 -94.33,89.54 -93.12,89.69 -92.01,90.22 -90.91,90.75 -90.03,91.60 -89.16,92.46 -88.60,93.54 -88.04,94.63 -87.86,95.84 -87.68,97.05 -87.90,98.26 -88.11,99.46 -88.70,100.54 -89.29,101.61 -90.19,102.44 -91.09,103.26 -92.21,103.76 -93.33,104.26 -94.55,104.37 -95.76,104.49 -96.96,104.21 -98.15,103.93 -99.19,103.28 -100.22,102.64 -101.00,101.69 -101.78,100.75 -102.22,99.61 -102.65,98.46 -102.70,97.24 -102.75,96.02 -102.75,96.02 -102.75,96.02 -101.72,93.35 -100.68,90.68 -99.68,88.76 -98.68,86.85 -97.52,84.88 -96.36,82.91 -95.20,80.96 -94.05,79.01 -92.31,76.50 -90.58,73.99 -88.65,71.84 -86.73,69.70 -85.34,68.07 -83.95,66.45 -82.43,64.36 -80.91,62.27 -79.42,60.20 -77.93,58.14 -76.41,56.32 -74.88,54.51 -72.89,52.37 -70.90,50.24 -69.06,48.55 -67.21,46.86 -65.16,44.84 -63.11,42.81 -61.32,40.90 -59.54,39.00 -57.83,37.11 -56.11,35.22 -54.47,33.32 -52.82,31.43 -51.04,29.70 -49.26,27.96 -46.85,26.10 -44.45,24.24 -42.50,23.00 -40.55,21.76 -37.82,19.85 -35.09,17.93 -32.96,16.27 -30.82,14.60 -28.19,12.46 -25.55,10.32 -23.63,8.66 -21.70,7.00 -18.34,4.82 -14.98,2.64 -13.13,1.49 -11.27,0.34 -9.33,-0.70 -7.40,-1.74 -5.02,-3.14 -2.64,-4.54 -2.06,-4.79 -1.47,-5.04 -0.85,-5.15 -0.22,-5.25 0.40,-5.20 1.03,-5.15 1.63,-4.95 2.23,-4.75 2.77,-4.42 3.31,-4.08 3.75,-3.62 4.19,-3.17 4.51,-2.62 4.83,-2.07 5.01,-1.46 5.18,-0.86 5.21,-0.22 5.24,0.40 5.11,1.02 4.99,1.64 4.72,2.22 4.45,2.79 4.05,3.28 3.65,3.78 3.15,4.16 2.64,4.54 2.64,4.54 L 2.64,4.54 Z"></path></g><g transform="translate(15.921875 176.21875) rotate(0 29.1875 -1.4609375)" stroke="none"><path fill="#c92a2a" d="M 0,-5.15 Q 0,-5.15 2.10,-5.22 4.20,-5.28 6.71,-5.32 9.21,-5.35 11.64,-5.38 14.06,-5.40 16.47,-5.57 18.88,-5.74 21.48,-6.27 24.08,-6.80 26.84,-7.33 29.60,-7.86 32.04,-8.34 34.48,-8.83 37.12,-9.29 39.75,-9.76 42.30,-10.11 44.86,-10.47 47.14,-10.66 49.42,-10.86 51.57,-10.90 53.72,-10.94 56.04,-10.96 58.37,-10.97 59.56,-10.77 60.76,-10.58 61.83,-10.01 62.90,-9.44 63.73,-8.57 64.56,-7.69 65.07,-6.59 65.58,-5.49 65.71,-4.29 65.84,-3.08 65.58,-1.90 65.32,-0.72 64.70,0.31 64.07,1.35 63.15,2.13 62.23,2.92 61.10,3.36 59.98,3.81 58.77,3.88 57.56,3.94 56.39,3.62 55.23,3.29 54.22,2.61 53.22,1.94 52.49,0.97 51.76,0.01 51.37,-1.13 50.98,-2.28 50.99,-3.49 50.99,-4.70 51.37,-5.85 51.76,-6.99 52.49,-7.96 53.22,-8.92 54.23,-9.60 55.23,-10.28 56.40,-10.60 57.56,-10.93 58.77,-10.86 59.98,-10.80 61.10,-10.35 62.23,-9.90 63.15,-9.11 64.07,-8.33 64.70,-7.29 65.32,-6.26 65.58,-5.07 65.84,-3.89 65.71,-2.69 65.58,-1.48 65.07,-0.38 64.56,0.70 63.73,1.58 62.90,2.46 61.83,3.03 60.76,3.60 59.56,3.79 58.37,3.99 58.37,3.99 58.37,3.99 55.58,3.96 52.80,3.94 50.59,3.78 48.38,3.61 46.03,3.94 43.68,4.27 41.43,4.46 39.19,4.65 36.87,4.97 34.55,5.29 31.92,5.60 29.28,5.91 26.49,6.21 23.71,6.50 20.99,6.67 18.28,6.84 16.09,6.68 13.89,6.52 11.36,6.17 8.83,5.82 6.52,5.55 4.20,5.28 2.10,5.22 0,5.15 -0.61,5.08 -1.23,5.00 -1.81,4.78 -2.39,4.56 -2.90,4.21 -3.42,3.86 -3.83,3.39 -4.24,2.93 -4.53,2.38 -4.82,1.82 -4.97,1.22 -5.12,0.62 -5.12,-0.00 -5.12,-0.62 -4.97,-1.22 -4.82,-1.82 -4.53,-2.38 -4.24,-2.93 -3.83,-3.39 -3.42,-3.86 -2.90,-4.21 -2.39,-4.56 -1.81,-4.78 -1.23,-5.00 -0.61,-5.08 0.00,-5.15 0.00,-5.15 L 0,-5.15 Z"></path></g><g transform="translate(76.04296875 172.7265625) rotate(0 34.8125 -42.64453125)" stroke="none"><path fill="#c92a2a" d="M -4.13,-3.38 Q -4.13,-3.38 -2.60,-5.29 -1.06,-7.19 1.14,-10.03 3.35,-12.87 5.17,-15.30 6.98,-17.73 9.09,-20.19 11.19,-22.65 12.87,-24.63 14.54,-26.60 15.94,-28.27 17.33,-29.94 18.88,-31.61 20.43,-33.29 22.26,-35.52 24.09,-37.75 25.89,-39.89 27.69,-42.04 29.59,-44.47 31.50,-46.91 32.98,-48.68 34.47,-50.45 36.18,-52.77 37.90,-55.09 39.23,-57.17 40.56,-59.24 41.83,-61.45 43.10,-63.66 44.49,-65.98 45.89,-68.30 47.35,-70.23 48.82,-72.17 50.55,-73.83 52.28,-75.49 53.99,-77.12 55.70,-78.76 57.47,-80.71 59.24,-82.67 60.70,-84.61 62.17,-86.55 62.11,-86.07 62.05,-85.59 62.30,-86.79 62.54,-88.00 63.16,-89.05 63.78,-90.11 64.70,-90.92 65.63,-91.72 66.76,-92.19 67.89,-92.66 69.12,-92.74 70.34,-92.83 71.53,-92.51 72.71,-92.20 73.73,-91.53 74.76,-90.85 75.51,-89.89 76.27,-88.92 76.67,-87.76 77.08,-86.61 77.10,-85.38 77.11,-84.16 76.74,-82.99 76.36,-81.82 75.63,-80.84 74.90,-79.85 73.90,-79.15 72.89,-78.45 71.71,-78.11 70.54,-77.76 69.31,-77.81 68.09,-77.86 66.94,-78.30 65.80,-78.74 64.85,-79.52 63.91,-80.30 63.26,-81.35 62.62,-82.39 62.34,-83.58 62.06,-84.78 62.18,-86.00 62.29,-87.22 62.79,-88.34 63.29,-89.45 64.13,-90.36 64.96,-91.26 66.03,-91.84 67.11,-92.43 68.31,-92.65 69.52,-92.86 70.73,-92.68 71.95,-92.50 73.04,-91.94 74.13,-91.37 74.98,-90.50 75.84,-89.62 76.37,-88.51 76.89,-87.41 77.04,-86.19 77.19,-84.97 77.19,-84.97 77.19,-84.97 75.52,-81.22 73.85,-77.46 72.66,-75.63 71.47,-73.79 69.89,-72.07 68.31,-70.35 66.65,-68.76 65.00,-67.17 63.06,-65.52 61.12,-63.88 59.61,-62.27 58.11,-60.66 56.75,-58.57 55.39,-56.47 53.97,-54.14 52.56,-51.81 50.90,-49.38 49.24,-46.95 47.73,-44.90 46.21,-42.86 44.17,-40.52 42.12,-38.18 40.15,-35.81 38.18,-33.45 36.71,-31.77 35.23,-30.10 33.32,-28.08 31.40,-26.06 29.01,-23.65 26.62,-21.24 25.11,-19.67 23.60,-18.10 21.80,-16.26 20.01,-14.41 18.14,-12.50 16.26,-10.60 14.12,-8.13 11.99,-5.66 9.62,-3.01 7.26,-0.37 5.70,1.50 4.13,3.38 3.67,3.83 3.20,4.28 2.64,4.60 2.08,4.92 1.46,5.10 0.84,5.28 0.20,5.30 -0.43,5.33 -1.07,5.20 -1.70,5.07 -2.28,4.79 -2.86,4.51 -3.36,4.10 -3.86,3.69 -4.25,3.18 -4.63,2.66 -4.88,2.07 -5.14,1.47 -5.24,0.84 -5.34,0.20 -5.29,-0.43 -5.23,-1.07 -5.03,-1.68 -4.82,-2.30 -4.48,-2.84 -4.13,-3.39 -4.13,-3.38 L -4.13,-3.38 Z"></path></g><g transform="translate(107.0546875 77.1171875) rotate(0 21.85546875 1.89453125)" stroke="none"><path fill="#c92a2a" d="M -1.77,-4.55 Q -1.77,-4.55 -0.86,-5.01 0.05,-5.47 2.15,-6.29 4.24,-7.10 6.50,-7.62 8.76,-8.15 10.94,-8.33 13.12,-8.51 15.27,-8.65 17.41,-8.80 19.55,-8.91 21.69,-9.03 24.06,-9.13 26.44,-9.24 28.64,-9.31 30.84,-9.39 33.63,-9.14 36.41,-8.90 38.58,-8.56 40.76,-8.22 43.25,-7.71 45.74,-7.20 47.67,-5.65 49.60,-4.10 50.35,-1.86 51.09,0.38 50.83,3.57 50.56,6.76 46.60,10.13 42.63,13.51 41.42,13.49 40.21,13.48 39.07,13.08 37.92,12.68 36.97,11.94 36.01,11.20 35.34,10.19 34.67,9.18 34.36,8.01 34.05,6.84 34.13,5.63 34.21,4.42 34.67,3.30 35.13,2.18 35.92,1.27 36.72,0.35 37.76,-0.25 38.80,-0.86 39.99,-1.11 41.17,-1.36 42.38,-1.21 43.58,-1.07 44.67,-0.55 45.77,-0.03 46.64,0.80 47.51,1.64 48.06,2.72 48.62,3.80 48.80,4.99 48.98,6.19 48.77,7.38 48.56,8.57 47.99,9.64 47.41,10.70 46.52,11.52 45.63,12.35 44.53,12.84 43.42,13.34 42.22,13.46 41.01,13.58 39.83,13.30 38.65,13.03 37.62,12.39 36.59,11.76 35.82,10.83 35.04,9.90 34.61,8.77 34.17,7.64 34.12,6.43 34.07,5.22 34.41,4.05 34.74,2.89 35.43,1.90 36.12,0.90 37.09,0.18 38.07,-0.53 39.22,-0.91 40.37,-1.28 40.37,-1.28 40.37,-1.28 38.77,1.29 37.17,3.87 39.01,5.20 40.85,6.54 38.53,6.07 36.21,5.61 33.52,5.17 30.84,4.74 28.64,4.66 26.44,4.59 24.06,4.48 21.69,4.38 19.29,4.25 16.90,4.12 14.63,3.96 12.37,3.80 10.24,3.38 8.11,2.95 5.93,3.47 3.74,3.98 2.76,4.26 1.77,4.55 1.20,4.69 0.63,4.84 0.04,4.85 -0.54,4.85 -1.11,4.72 -1.68,4.58 -2.21,4.31 -2.73,4.04 -3.18,3.66 -3.62,3.27 -3.96,2.79 -4.30,2.31 -4.51,1.76 -4.73,1.21 -4.80,0.63 -4.88,0.04 -4.82,-0.53 -4.75,-1.12 -4.55,-1.67 -4.34,-2.22 -4.01,-2.71 -3.69,-3.20 -3.25,-3.59 -2.81,-3.99 -2.29,-4.27 -1.77,-4.55 -1.77,-4.55 L -1.77,-4.55 Z"></path></g><g transform="translate(154.19921875 78.2734375) rotate(0 -1.939453125 51.142578125)" stroke="none"><path fill="#c92a2a" d="M 5.20,0 Q 5.20,0 5.26,2.10 5.32,4.20 5.51,6.86 5.71,9.53 5.57,11.83 5.44,14.13 5.56,16.71 5.68,19.29 5.66,21.80 5.65,24.32 5.60,26.75 5.56,29.19 5.63,31.38 5.71,33.57 5.77,35.74 5.83,37.90 5.88,40.09 5.93,42.27 5.98,44.85 6.03,47.43 6.07,50.04 6.11,52.64 6.14,55.08 6.17,57.52 6.19,59.89 6.21,62.27 6.24,64.67 6.26,67.08 6.28,69.52 6.30,71.95 6.18,74.71 6.05,77.47 6.04,79.61 6.03,81.75 5.91,83.89 5.78,86.04 5.67,88.30 5.55,90.56 5.20,92.87 4.85,95.19 4.22,99.66 3.59,104.12 3.10,105.26 2.61,106.41 1.79,107.34 0.96,108.27 -0.12,108.88 -1.20,109.50 -2.42,109.74 -3.64,109.98 -4.88,109.81 -6.11,109.65 -7.23,109.10 -8.35,108.55 -9.23,107.67 -10.12,106.79 -10.67,105.67 -11.23,104.56 -11.40,103.33 -11.57,102.09 -11.34,100.87 -11.11,99.64 -10.50,98.56 -9.89,97.47 -8.96,96.64 -8.04,95.80 -6.89,95.31 -5.75,94.81 -4.51,94.71 -3.27,94.60 -2.06,94.90 -0.85,95.20 0.19,95.87 1.24,96.54 2.03,97.50 2.81,98.47 3.24,99.64 3.67,100.81 3.71,102.06 3.75,103.30 3.38,104.49 3.02,105.68 2.30,106.70 1.57,107.71 0.56,108.44 -0.44,109.17 -1.63,109.54 -2.82,109.91 -4.06,109.88 -5.31,109.85 -6.48,109.42 -7.65,108.99 -8.62,108.21 -9.59,107.44 -10.27,106.39 -10.94,105.34 -11.24,104.13 -11.55,102.92 -11.45,101.68 -11.35,100.44 -11.35,100.44 -11.35,100.44 -10.92,98.17 -10.48,95.91 -10.19,93.74 -9.90,91.57 -9.62,88.94 -9.33,86.30 -9.18,84.02 -9.02,81.73 -9.01,79.47 -8.99,77.21 -8.86,74.58 -8.72,71.95 -8.70,69.52 -8.68,67.08 -8.65,64.67 -8.62,62.27 -8.60,59.89 -8.58,57.52 -8.55,55.08 -8.53,52.64 -8.49,50.04 -8.44,47.43 -8.39,44.85 -8.34,42.27 -8.29,40.09 -8.24,37.90 -8.18,35.74 -8.12,33.57 -8.04,31.28 -7.95,28.99 -7.69,26.48 -7.44,23.97 -7.19,21.61 -6.93,19.25 -6.79,16.98 -6.65,14.71 -6.18,12.12 -5.71,9.53 -5.51,6.86 -5.32,4.20 -5.26,2.10 -5.20,0 -5.12,-0.62 -5.05,-1.24 -4.82,-1.83 -4.60,-2.41 -4.25,-2.93 -3.89,-3.45 -3.42,-3.86 -2.95,-4.28 -2.40,-4.57 -1.84,-4.86 -1.23,-5.01 -0.62,-5.16 0.00,-5.16 0.62,-5.16 1.23,-5.01 1.84,-4.86 2.40,-4.57 2.95,-4.28 3.42,-3.86 3.89,-3.44 4.25,-2.93 4.60,-2.41 4.82,-1.83 5.05,-1.24 5.12,-0.62 5.20,0.00 5.20,0.00 L 5.20,0 Z"></path></g><g transform="translate(152.328125 183.98046875) rotate(0 -21.080078125 -22.796875)" stroke="none"><path fill="#c92a2a" d="M 0,5.17 Q 0,5.17 -1.59,5.26 -3.18,5.34 -5.78,5.56 -8.38,5.77 -11.19,5.95 -14.00,6.14 -16.47,6.14 -18.95,6.15 -22.05,5.94 -25.15,5.73 -27.59,4.85 -30.04,3.98 -31.88,2.77 -33.72,1.56 -35.94,-0.50 -38.16,-2.57 -39.44,-4.33 -40.72,-6.10 -41.93,-8.00 -43.14,-9.89 -44.36,-12.32 -45.57,-14.75 -46.35,-17.90 -47.12,-21.06 -47.58,-23.35 -48.04,-25.65 -48.42,-27.97 -48.80,-30.28 -48.94,-32.53 -49.07,-34.77 -49.24,-37.21 -49.42,-39.65 -49.56,-42.61 -49.70,-45.56 -49.51,-46.77 -49.31,-47.97 -48.75,-49.05 -48.18,-50.13 -47.29,-50.98 -46.41,-51.82 -45.30,-52.34 -44.20,-52.85 -42.99,-52.99 -41.77,-53.12 -40.58,-52.87 -39.39,-52.61 -38.34,-51.98 -37.29,-51.36 -36.50,-50.43 -35.70,-49.50 -35.25,-48.37 -34.79,-47.24 -34.72,-46.02 -34.65,-44.80 -34.97,-43.62 -35.30,-42.44 -35.98,-41.43 -36.66,-40.42 -37.63,-39.68 -38.60,-38.93 -39.75,-38.54 -40.91,-38.15 -42.13,-38.14 -43.35,-38.14 -44.51,-38.53 -45.67,-38.91 -46.64,-39.65 -47.62,-40.38 -48.30,-41.39 -48.99,-42.40 -49.32,-43.57 -49.65,-44.75 -49.59,-45.97 -49.53,-47.19 -49.08,-48.32 -48.63,-49.46 -47.85,-50.39 -47.06,-51.32 -46.01,-51.96 -44.97,-52.59 -43.78,-52.85 -42.59,-53.12 -41.37,-52.99 -40.16,-52.87 -39.05,-52.36 -37.94,-51.85 -37.05,-51.01 -36.16,-50.17 -35.59,-49.10 -35.01,-48.02 -34.81,-46.82 -34.61,-45.61 -34.61,-45.61 -34.61,-45.61 -34.49,-44.05 -34.37,-42.48 -34.36,-40.19 -34.36,-37.91 -34.22,-35.59 -34.07,-33.26 -33.80,-31.10 -33.53,-28.93 -33.13,-26.67 -32.72,-24.41 -32.27,-22.09 -31.83,-19.78 -30.68,-17.41 -29.54,-15.05 -28.15,-12.97 -26.75,-10.88 -25.01,-9.12 -23.26,-7.37 -21.07,-7.00 -18.88,-6.64 -16.44,-6.39 -14.00,-6.14 -11.19,-5.95 -8.38,-5.77 -5.78,-5.56 -3.18,-5.34 -1.59,-5.26 0,-5.17 0.61,-5.10 1.23,-5.02 1.82,-4.80 2.40,-4.58 2.91,-4.22 3.43,-3.87 3.84,-3.40 4.25,-2.94 4.54,-2.38 4.83,-1.83 4.98,-1.22 5.13,-0.62 5.13,0.00 5.13,0.62 4.98,1.22 4.83,1.83 4.54,2.38 4.25,2.94 3.84,3.40 3.43,3.87 2.91,4.22 2.40,4.58 1.82,4.80 1.23,5.02 0.61,5.10 -0.00,5.17 -0.00,5.17 L 0,5.17 Z"></path></g></svg>